
<!-- <svg xmlns="http://www.w3.org/2000/svg" width="48" height="48" viewBox="0 0 48 48"><g fill-rule="evenodd" clip-rule="evenodd"><path fill="#fff" d="M0 0h192.756v192.756H0V0z"/><path d="M45.434 22.134s6.213 1.241 9.195 2.484c2.981 1.242 12.673 5.963 16.897 10.437 4.225 4.475 9.692 14.166 9.692 14.166s4.474-4.723 6.461-3.48c1.989 1.243 3.479 7.704 1.243 9.941-2.237 2.237-5.219-.746-5.219-.746l-17.395-13.42s6.958 7.705 10.437 13.171c3.48 5.469 12.178 22.862 12.178 22.862s3.977-5.964 5.467-11.68c1.491-5.714.746-22.615.498-28.082-.25-5.467-2.982-7.952-6.461-11.928-3.479-3.977-20.128-2.981-23.112-2.981-2.982 0-10.437-.25-13.916-1.243-3.479-.995-7.703-3.977-7.703-3.977s-6.461-4.969-7.456-3.479 3.977 5.715 5.716 6.461c1.74.746 2.237 5.716 6.212 13.667 3.977 7.953 7.456 32.802 7.456 37.027s.497 20.129-1.989 21.869c-2.484 1.739-4.473-2.236-4.473-2.236s4.224 10.933 5.716 13.171c1.491 2.236 6.71 6.957 7.704 6.213.994-.746-.994-9.195-.994-9.195s3.23 4.473 5.218 3.977c1.988-.498 2.484-4.721 2.484-4.721s-.496-14.663-2.733-34.047c-2.236-19.381-21.123-44.231-21.123-44.231z"/><path d="M156.518 14.181c-.996-1.49-7.457 3.479-7.457 3.479s-4.225 2.982-7.703 3.977c-3.48.993-10.934 1.243-13.916 1.243-2.984 0-19.631-.996-23.111 2.981-3.479 3.976-6.213 6.461-6.461 11.928s-.994 22.368.498 28.082c1.488 5.715 5.465 11.68 5.465 11.68s8.697-17.394 12.178-22.862c3.479-5.466 10.438-13.171 10.438-13.171l-17.396 13.42s-2.982 2.982-5.219.746c-2.234-2.238-.744-8.698 1.242-9.941 1.99-1.242 6.463 3.48 6.463 3.48s5.467-9.691 9.691-14.166c4.225-4.474 13.916-9.194 16.898-10.437 2.98-1.243 9.193-2.484 9.193-2.484s-18.887 24.85-21.121 44.233c-2.238 19.384-2.734 34.047-2.734 34.047s.496 4.223 2.484 4.721c1.379.344 3.352-1.697 4.434-2.982-1.162 9.016-3.084 22.602-5.676 36.281-4.473 23.609-15.904 30.318-18.887 32.059-2.982 1.738-7.453 4.225-16.65-.996-9.193-5.219-11.182-27.832-9.69-39.76 1.49-11.928 7.952-19.383 18.141-21.867 10.189-2.486 11.43 13.916 11.928 15.406.496 1.49-.248 7.953.746 8.199.992.25-1.492 2.484 3.727-.744 5.219-3.23 4.475-10.189 3.977-15.406-.496-5.221-9.691-13.422-20.875-12.178-11.182 1.242-22.862 15.656-26.094 35.785-3.23 20.129 10.935 34.045 18.141 37.773 7.208 3.727 13.918 2.484 24.852-2.734 10.936-5.219 13.668-22.863 18.639-38.021s10.934-44.98 10.934-44.98l-2.895 2.644c-.49.076-1.021-.017-1.578-.408-2.486-1.739-1.99-17.644-1.99-21.869s3.482-29.075 7.457-37.027c3.977-7.952 4.473-12.921 6.213-13.667 1.737-.749 6.706-4.974 5.714-6.464z"/></g></svg> -->

<svg xmlns="http://www.w3.org/2000/svg" xmlns:xlink="http://www.w3.org/1999/xlink"  zoomAndPan="magnify" width="48" height="48" viewBox="0 0 48 48" preserveAspectRatio="xMidYMid meet" version="1.0"><defs><g/><clipPath id="72408add03"><path d="M 153 82.738281 L 177 82.738281 L 177 102 L 153 102 Z M 153 82.738281 " clip-rule="nonzero"/></clipPath><clipPath id="1b1086cf70"><path d="M 132 92 L 198.691406 92 L 198.691406 105 L 132 105 Z M 132 92 " clip-rule="nonzero"/></clipPath></defs><g fill="#ffd51e" fill-opacity="1"><g transform="translate(135.690112, 212.056436)"><g><path d="M 5.699219 -105 L 5.699219 -104.25 C 12.300781 -103.5 17.550781 -101.851562 17.550781 -96.449219 L 17.550781 -3 C 17.550781 15.75 13.5 24.898438 -0.75 31.800781 L -0.449219 32.101562 C 16.5 27.300781 31.050781 16.351562 39 5.398438 C 38.25 0.75 38.101562 -5.550781 38.101562 -14.851562 L 38.101562 -96.449219 C 38.101562 -101.851562 43.351562 -103.5 49.5 -104.25 L 49.5 -105 Z M 5.699219 -105 "/></g></g></g><g fill="#ffd51e" fill-opacity="1"><g transform="translate(154.081958, 212.056436)"><g><path d="M 136.351562 -104.25 L 136.351562 -105 L 101.398438 -105 L 69 -28.351562 L 30.601562 -105 L 1.5 -105 C 7.949219 -100.199219 10.800781 -95.699219 13.648438 -90 L 13.648438 -23.550781 C 13.648438 -3.148438 8.398438 -1.5 2.25 -0.75 L 2.25 0 L 28.050781 0 L 28.050781 -0.75 C 21.898438 -1.5 16.648438 -6.148438 16.648438 -26.550781 L 16.648438 -84 L 59.550781 1.648438 L 101.398438 -97.199219 L 101.398438 -8.550781 C 101.398438 -3.148438 96.148438 -1.5 90 -0.75 L 90 0 L 136.351562 0 L 136.351562 -0.75 C 130.199219 -1.5 124.949219 -3.148438 124.949219 -8.550781 L 124.949219 -96.449219 C 124.949219 -101.851562 130.199219 -103.5 136.351562 -104.25 Z M 136.351562 -104.25 "/></g></g></g><g clip-path="url(#72408add03)"><path fill="#ffd51e" d="M 165.195312 85.058594 L 163.960938 93.902344 L 161.054688 87.300781 C 161.1875 87.242188 161.300781 87.15625 161.394531 87.042969 C 161.484375 86.929688 161.542969 86.796875 161.570312 86.65625 C 161.597656 86.511719 161.589844 86.367188 161.546875 86.226562 C 161.503906 86.085938 161.429688 85.964844 161.328125 85.859375 C 161.222656 85.757812 161.101562 85.683594 160.960938 85.640625 C 160.820312 85.597656 160.679688 85.589844 160.535156 85.617188 C 160.390625 85.644531 160.261719 85.707031 160.144531 85.796875 C 160.03125 85.890625 159.945312 86.003906 159.886719 86.136719 C 159.828125 86.273438 159.804688 86.414062 159.816406 86.558594 C 159.828125 86.707031 159.875 86.839844 159.953125 86.964844 C 160.03125 87.089844 160.136719 87.1875 160.265625 87.261719 C 160.390625 87.332031 160.527344 87.371094 160.675781 87.375 L 160.488281 94.722656 L 155.507812 89.78125 C 155.679688 89.609375 155.765625 89.402344 155.761719 89.164062 C 155.765625 88.917969 155.679688 88.707031 155.507812 88.53125 C 155.332031 88.355469 155.125 88.269531 154.878906 88.269531 C 154.632812 88.269531 154.421875 88.355469 154.25 88.527344 C 154.074219 88.703125 153.988281 88.914062 153.988281 89.15625 C 153.992188 89.402344 154.078125 89.613281 154.253906 89.785156 C 154.425781 89.957031 154.636719 90.042969 154.882812 90.042969 C 155.019531 90.042969 155.148438 90.015625 155.269531 89.953125 L 159.78125 99.164062 C 160.644531 98.714844 161.546875 98.378906 162.488281 98.148438 C 163.433594 97.921875 164.390625 97.804688 165.359375 97.804688 C 166.328125 97.804688 167.285156 97.921875 168.230469 98.148438 C 169.171875 98.378906 170.074219 98.714844 170.9375 99.164062 L 175.464844 89.953125 C 175.589844 90.015625 175.71875 90.042969 175.855469 90.042969 C 176.101562 90.042969 176.3125 89.957031 176.484375 89.78125 C 176.65625 89.609375 176.742188 89.398438 176.742188 89.152344 C 176.742188 88.90625 176.65625 88.699219 176.480469 88.527344 C 176.304688 88.351562 176.097656 88.265625 175.851562 88.269531 C 175.605469 88.269531 175.398438 88.359375 175.226562 88.53125 C 175.054688 88.707031 174.96875 88.917969 174.96875 89.164062 C 174.96875 89.402344 175.054688 89.609375 175.222656 89.78125 L 170.210938 94.722656 L 170.042969 87.375 C 170.1875 87.371094 170.324219 87.332031 170.449219 87.261719 C 170.578125 87.1875 170.679688 87.089844 170.757812 86.96875 C 170.835938 86.84375 170.882812 86.710938 170.890625 86.566406 C 170.902344 86.421875 170.882812 86.28125 170.824219 86.148438 C 170.765625 86.015625 170.679688 85.902344 170.566406 85.8125 C 170.453125 85.71875 170.324219 85.660156 170.183594 85.632812 C 170.039062 85.605469 169.898438 85.613281 169.757812 85.65625 C 169.621094 85.699219 169.5 85.769531 169.394531 85.875 C 169.292969 85.976562 169.21875 86.097656 169.175781 86.234375 C 169.132812 86.375 169.125 86.515625 169.152344 86.660156 C 169.179688 86.800781 169.238281 86.929688 169.328125 87.042969 C 169.417969 87.160156 169.53125 87.246094 169.664062 87.300781 L 166.757812 93.902344 L 165.523438 85.058594 C 165.71875 85.027344 165.898438 84.957031 166.058594 84.835938 C 166.21875 84.71875 166.339844 84.566406 166.421875 84.386719 C 166.503906 84.203125 166.539062 84.015625 166.527344 83.816406 C 166.511719 83.617188 166.453125 83.433594 166.34375 83.265625 C 166.238281 83.097656 166.09375 82.96875 165.921875 82.871094 C 165.746094 82.777344 165.558594 82.726562 165.359375 82.726562 C 165.160156 82.726562 164.972656 82.777344 164.796875 82.871094 C 164.625 82.96875 164.480469 83.097656 164.375 83.265625 C 164.265625 83.433594 164.207031 83.617188 164.191406 83.816406 C 164.179688 84.015625 164.210938 84.203125 164.296875 84.386719 C 164.378906 84.566406 164.5 84.71875 164.660156 84.835938 C 164.820312 84.957031 165 85.027344 165.195312 85.058594 Z M 159.652344 101.167969 L 159.257812 100.113281 C 161.167969 99.375 163.144531 98.941406 165.1875 98.820312 C 167.347656 98.957031 169.453125 99.378906 171.496094 100.09375 L 171.277344 101.144531 C 169.402344 100.457031 167.460938 100.117188 165.460938 100.121094 C 163.464844 100.125 161.527344 100.472656 159.652344 101.167969 Z M 159.652344 101.167969 " fill-opacity="1" fill-rule="evenodd"/></g><g clip-path="url(#1b1086cf70)"><path fill="#ffd51e" d="M 162.515625 101.429688 C 159.324219 102.722656 151.824219 103.8125 146.476562 100.222656 C 141.128906 96.632812 145.023438 92.636719 145.023438 92.636719 C 145.023438 92.636719 142.84375 95.914062 145.878906 98.582031 C 148.917969 101.246094 156.316406 102.417969 162.519531 101.429688 Z M 165.363281 100.136719 C 164.707031 100.785156 163.988281 101.351562 163.203125 101.835938 C 162.417969 102.320312 161.585938 102.707031 160.714844 103 C 159.839844 103.289062 158.941406 103.476562 158.023438 103.5625 C 157.105469 103.648438 156.191406 103.628906 155.277344 103.5 C 148.96875 102.636719 137.253906 100.136719 132.253906 103.582031 C 132.253906 103.582031 136.308594 101.515625 142.855469 102.976562 C 149.40625 104.4375 162.253906 106.167969 165.382812 100.136719 Z M 147 101.589844 C 138.589844 99.960938 136.914062 95.179688 136.914062 95.179688 C 136.914062 95.179688 136.613281 96.769531 138.792969 98.84375 C 140.972656 100.914062 147 101.558594 147 101.558594 Z M 168.203125 101.457031 C 171.394531 102.722656 178.894531 103.8125 184.242188 100.222656 C 189.589844 96.632812 185.695312 92.636719 185.695312 92.636719 C 185.695312 92.636719 187.875 95.914062 184.839844 98.582031 C 181.800781 101.246094 174.402344 102.417969 168.203125 101.429688 Z M 165.363281 100.164062 C 166.015625 100.816406 166.738281 101.382812 167.523438 101.863281 C 168.308594 102.347656 169.136719 102.734375 170.011719 103.027344 C 170.886719 103.320312 171.785156 103.507812 172.703125 103.59375 C 173.621094 103.675781 174.535156 103.65625 175.449219 103.53125 C 181.742188 102.664062 193.464844 100.164062 198.464844 103.609375 C 198.464844 103.609375 194.417969 101.546875 187.863281 103.007812 C 181.308594 104.46875 168.464844 106.195312 165.332031 100.164062 Z M 183.71875 101.617188 C 192.128906 100.019531 193.8125 95.238281 193.8125 95.238281 C 193.8125 95.238281 194.113281 96.828125 191.917969 98.871094 C 189.722656 100.914062 183.71875 101.558594 183.71875 101.558594 Z M 183.71875 101.617188 " fill-opacity="1" fill-rule="evenodd"/></g></svg>