<svg xmlns="http://www.w3.org/2000/svg" width="32" height="32" id="ecommerce"><path style="text-indent:0;text-align:start;line-height:normal;text-transform:none;block-progression:tb;marker:none;-inkscape-font-specification:Sans" d="M16.75.469a.517.517 0 0 0-.406.5v1.25c-.474.137-.91.327-1.344.562l-.875-.906a.52.52 0 0 0-.719 0l-2 2a.52.52 0 0 0 0 .719l.906.875a6.68 6.68 0 0 0-.562 1.343H10.5a.52.52 0 0 0-.5.5V8.97A.5.5 0 0 0 10 9H7.844l-.625-2.625C7.136 6.065 7 6 6.562 6H3v1h3.344l3.468 14.594a.5.5 0 0 0 .063.125v.031a.5.5 0 0 0 .031.063l.875 3.78c-1.348.409-2.344 1.649-2.344 3.126A3.29 3.29 0 0 0 11.72 32 3.29 3.29 0 0 0 15 28.719c0-.887-.361-1.69-.938-2.282h6.313a3.264 3.264 0 0 0-.938 2.282A3.29 3.29 0 0 0 22.72 32 3.29 3.29 0 0 0 26 28.719c0-1.633-1.215-2.973-2.781-3.219-3.373 0-7.66-.063-11.438-.063L10.97 22h13.906a.516.516 0 0 0 .5-.375l3.594-12c.075-.29-.17-.616-.469-.625h-2a.5.5 0 0 0 0-.031V7.313a.52.52 0 0 0-.5-.5h-1.25a6.67 6.67 0 0 0-.563-1.344l.907-.875a.52.52 0 0 0 0-.719l-2-2a.52.52 0 0 0-.719 0l-.875.906a6.676 6.676 0 0 0-1.344-.562V.969a.52.52 0 0 0-.5-.5h-2.812a.5.5 0 0 0-.094 0zm.594 1h1.812V2.53a.517.517 0 0 0 .407.5c.64.146 1.224.4 1.78.75.19.124.465.097.626-.062l.781-.75L24 4.219 23.25 5a.514.514 0 0 0-.063.594c.348.558.607 1.17.75 1.812.044.23.267.41.5.407H25.5v1.156a.5.5 0 0 0 0 .031H11a.5.5 0 0 0 0-.031V7.813h1.063a.517.517 0 0 0 .5-.407c.146-.64.4-1.225.75-1.781A.516.516 0 0 0 13.25 5l-.75-.781 1.25-1.25.781.75c.157.144.41.171.594.062a5.861 5.861 0 0 1 1.813-.75.517.517 0 0 0 .406-.5zm.906 3.25c-2.203 0-4 1.797-4 4 0 .086.026.165.031.25h1c-.007-.084-.031-.164-.031-.25 0-1.663 1.337-3 3-3s3 1.337 3 3c0 .086-.024.166-.031.25h1c.005-.085.031-.164.031-.25 0-2.203-1.797-4-4-4zM8.094 10h19.75l-.594 2H15v1h11.938l-.625 2H17v1h9.031l-.625 2H19v1h6.125l-.625 2H10.719zm3.625 16.438A2.276 2.276 0 0 1 14 28.718 2.276 2.276 0 0 1 11.719 31a2.276 2.276 0 0 1-2.281-2.281 2.276 2.276 0 0 1 2.28-2.282zm11 0A2.276 2.276 0 0 1 25 28.718 2.276 2.276 0 0 1 22.719 31a2.276 2.276 0 0 1-2.282-2.281 2.276 2.276 0 0 1 2.282-2.282zm-11 .75c-.823 0-1.5.677-1.5 1.5 0 .822.677 1.5 1.5 1.5.822 0 1.5-.678 1.5-1.5 0-.823-.678-1.5-1.5-1.5zm11 0c-.823 0-1.5.677-1.5 1.5 0 .822.677 1.5 1.5 1.5.822 0 1.5-.678 1.5-1.5 0-.823-.678-1.5-1.5-1.5zm-11 1c.282 0 .5.217.5.5 0 .282-.218.5-.5.5a.493.493 0 0 1-.5-.5c0-.283.218-.5.5-.5zm11 0c.282 0 .5.217.5.5 0 .282-.218.5-.5.5a.493.493 0 0 1-.5-.5c0-.283.218-.5.5-.5z" color="#000" enable-background="accumulate" font-family="Sans" font-weight="400" overflow="visible"></path></svg>
